<svg width="93" height="31" viewBox="0 0 93 31" fill="none" xmlns="http://www.w3.org/2000/svg">
<path d="M17.37 6.28H6.17001V12.92H17.05V18.2H6.17001V29H0.650011V0.999998H17.37V6.28ZM38.1422 29L36.4622 23.96H25.3022L23.6222 29H17.6622L27.4622 0.999998H34.3022L44.1422 29H38.1422ZM27.0622 18.8H34.7422L30.9022 7.36L27.0622 18.8ZM73.6453 15C73.6453 18.6267 72.4987 21.7733 70.2053 24.44L73.0853 27.44L69.1653 30.92L66.1253 27.76C63.9653 28.96 61.6187 29.56 59.0853 29.56C55.0587 29.56 51.632 28.16 48.8053 25.36C45.9787 22.5333 44.5653 19.08 44.5653 15C44.5653 10.92 45.9787 7.48 48.8053 4.68C51.632 1.85333 55.0587 0.439998 59.0853 0.439998C63.112 0.439998 66.5387 1.85333 69.3653 4.68C72.2187 7.48 73.6453 10.92 73.6453 15ZM59.0853 24.16C60.1253 24.16 61.1653 23.9867 62.2053 23.64L57.6053 18.84L61.5253 15.36L66.4453 20.48C67.5653 18.88 68.1253 17.0533 68.1253 15C68.1253 12.3333 67.2587 10.1333 65.5253 8.4C63.792 6.66666 61.6453 5.8 59.0853 5.8C56.5253 5.8 54.3787 6.66666 52.6453 8.4C50.912 10.1333 50.0453 12.3333 50.0453 15C50.0453 17.64 50.912 19.8267 52.6453 21.56C54.3787 23.2933 56.5253 24.16 59.0853 24.16ZM82.045 14.68C82.045 15.2133 82.3917 15.6533 83.085 16C83.805 16.32 84.6717 16.6133 85.685 16.88C86.6983 17.12 87.7117 17.44 88.725 17.84C89.7383 18.2133 90.5917 18.8533 91.285 19.76C92.005 20.6667 92.365 21.8 92.365 23.16C92.365 25.2133 91.5917 26.8 90.045 27.92C88.525 29.0133 86.6183 29.56 84.325 29.56C80.2183 29.56 77.4183 27.9733 75.925 24.8L80.405 22.28C80.9917 24.0133 82.2983 24.88 84.325 24.88C86.165 24.88 87.085 24.3067 87.085 23.16C87.085 22.6267 86.725 22.2 86.005 21.88C85.3117 21.5333 84.4583 21.2267 83.445 20.96C82.4317 20.6933 81.4183 20.36 80.405 19.96C79.3917 19.56 78.525 18.9333 77.805 18.08C77.1117 17.2 76.765 16.1067 76.765 14.8C76.765 12.8267 77.485 11.28 78.925 10.16C80.3917 9.01333 82.205 8.44 84.365 8.44C85.9917 8.44 87.4717 8.81333 88.805 9.56C90.1383 10.28 91.1917 11.32 91.965 12.68L87.565 15.08C86.925 13.72 85.8583 13.04 84.365 13.04C83.6983 13.04 83.1383 13.1867 82.685 13.48C82.2583 13.7733 82.045 14.1733 82.045 14.68Z" fill="#141414"/>
</svg>
